<?xml version="1.0" standalone="no"?>
<!DOCTYPE svg PUBLIC "-//W3C//DTD SVG 20010904//EN"
 "http://www.w3.org/TR/2001/REC-SVG-20010904/DTD/svg10.dtd">
<svg version="1.0" xmlns="http://www.w3.org/2000/svg"
 width="690.000000pt" height="362.000000pt" viewBox="0 0 690.000000 362.000000"
 preserveAspectRatio="xMidYMid meet">

<g transform="translate(0.000000,362.000000) scale(0.100000,-0.100000)"
fill="#FFFFFF" stroke="none">
<path d="M1470 3000 l-945 -5 -49 -24 c-65 -32 -123 -91 -151 -155 -37 -80
-305 -1245 -305 -1322 0 -125 71 -238 185 -294 l50 -25 1628 -3 c1102 -1 1627
-6 1627 -12 0 -6 -22 -100 -50 -210 -27 -110 -50 -215 -50 -234 0 -66 68 -117
135 -100 17 4 148 117 327 280 l300 274 916 2 c913 3 917 3 963 24 59 27 123
85 154 139 18 30 63 205 161 621 178 759 167 705 154 772 -27 147 -125 245
-271 272 -34 6 -392 9 -984 8 l-930 -3 -11 -50 c-6 -27 -14 -60 -18 -72 l-7
-23 973 -2 c1085 -3 1006 2 1063 -73 55 -71 57 -56 -91 -690 -74 -319 -141
-603 -149 -631 -19 -65 -48 -102 -99 -125 -38 -17 -73 -19 -415 -19 -301 0
-372 2 -368 13 3 7 19 67 36 132 41 155 41 155 49 155 4 0 17 -18 30 -40 12
-22 41 -53 64 -68 36 -23 51 -27 117 -27 63 0 85 5 126 27 97 52 157 124 204
247 41 107 150 556 158 652 16 199 -78 301 -247 269 -77 -15 -133 -44 -201
-107 -63 -59 -66 -57 -45 25 l14 52 -148 0 -148 0 -165 -662 -165 -663 -406
-5 -405 -5 -48 -46 c-242 -231 -407 -381 -411 -371 -2 6 17 90 42 187 25 97
46 181 46 186 0 5 -9 18 -20 29 -20 20 -33 20 -1699 20 -1163 0 -1688 3 -1708
11 -64 24 -115 96 -115 163 0 35 236 1069 277 1213 9 28 27 66 41 83 56 66
-41 62 1332 63 l1246 2 11 45 c6 25 14 60 18 78 l7 32 -343 -2 c-188 -2 -767
-5 -1287 -8z m4171 -589 c19 -16 23 -27 22 -72 -2 -57 -90 -437 -118 -507 -24
-58 -66 -92 -116 -92 -58 0 -73 29 -66 128 5 84 75 383 106 453 39 92 119 133
172 90z"/>
<path d="M3317 3003 c-5 -7 -57 -219 -57 -229 0 -3 71 -3 158 -2 l157 3 27
100 c40 149 53 135 -126 135 -85 0 -157 -3 -159 -7z"/>
<path d="M3810 3005 c0 -3 -79 -334 -175 -736 -96 -403 -175 -736 -175 -741 0
-5 70 -7 157 -6 l157 3 171 715 c94 393 175 727 178 743 l7 27 -160 0 c-88 0
-160 -2 -160 -5z"/>
<path d="M6684 2990 c-11 -4 -33 -22 -47 -40 -35 -41 -37 -116 -7 -166 29 -45
93 -70 146 -55 72 21 104 62 104 137 0 57 -22 94 -70 119 -31 16 -93 19 -126
5z m126 -29 c14 -9 34 -35 44 -56 17 -35 18 -42 5 -79 -9 -25 -27 -49 -48 -63
-117 -79 -255 83 -153 180 52 49 100 55 152 18z"/>
<path d="M6690 2865 c0 -60 3 -75 15 -75 9 0 15 10 15 26 0 21 4 25 23 22 14
-2 23 -11 25 -25 2 -15 10 -23 23 -23 23 0 24 18 4 47 -13 18 -13 22 0 33 37
31 2 70 -61 70 l-44 0 0 -75z m78 29 c2 -13 -4 -24 -13 -28 -24 -9 -35 1 -35
30 0 21 4 25 23 22 13 -2 23 -11 25 -24z"/>
<path d="M1241 2674 c-68 -18 -112 -45 -178 -108 -29 -27 -53 -45 -53 -40 0 5
7 34 15 64 8 30 15 56 15 58 0 1 -66 2 -147 2 l-148 0 -135 -563 -136 -562
155 -3 c84 -1 156 0 159 3 3 2 49 190 104 416 65 271 105 421 119 440 25 36
88 57 123 41 47 -21 44 -50 -61 -487 l-99 -410 155 -3 c84 -1 156 0 159 2 2 3
49 191 103 418 60 249 107 423 118 438 10 14 36 31 59 39 50 18 88 5 98 -35 7
-29 4 -43 -114 -534 l-78 -325 154 -3 c85 -1 157 -1 159 2 9 9 233 958 233
987 0 102 -89 170 -225 172 -87 1 -161 -30 -233 -97 -27 -25 -51 -46 -54 -46
-3 0 -9 11 -12 24 -8 32 -51 83 -85 100 -43 23 -111 27 -170 10z"/>
<path d="M2534 2679 c-207 -24 -352 -141 -407 -326 l-16 -53 159 0 158 0 17
50 c22 68 58 107 107 120 79 22 128 -10 128 -83 0 -48 -21 -89 -62 -121 -40
-30 -82 -46 -223 -86 -207 -59 -313 -139 -380 -283 -82 -177 -66 -320 42 -384
44 -25 57 -28 143 -28 107 0 164 20 253 88 26 21 49 37 52 37 3 0 5 -20 5 -45
l0 -45 155 0 155 0 0 54 c0 33 34 195 90 427 50 206 93 402 97 436 14 148 -62
221 -253 243 -99 11 -118 11 -220 -1z m76 -611 c-3 -37 -64 -238 -81 -269 -49
-89 -143 -117 -200 -60 -16 16 -29 40 -29 53 0 69 42 142 107 186 47 32 204
101 203 90z"/>
<path d="M3221 2613 c-6 -21 -15 -59 -20 -84 -6 -25 -62 -261 -126 -523 -63
-262 -115 -479 -115 -482 0 -2 71 -4 158 -4 l158 0 67 283 c38 155 99 409 136
565 l68 282 -158 0 -158 0 -10 -37z"/>
<path d="M4225 2628 c-6 -29 -65 -274 -155 -646 -38 -161 -70 -312 -70 -335 0
-61 27 -108 80 -137 39 -21 58 -25 135 -25 86 0 94 2 149 35 32 19 77 56 99
83 22 26 42 45 44 43 4 -3 -6 -50 -23 -108 -5 -17 6 -18 143 -18 l149 0 62
258 c34 141 95 394 136 562 l73 305 -155 3 c-85 1 -157 1 -159 -2 -2 -2 -49
-189 -103 -414 -54 -226 -104 -420 -109 -431 -20 -37 -62 -61 -107 -61 -47 0
-64 17 -64 62 0 19 178 774 196 831 5 16 -7 17 -155 17 -158 0 -161 0 -166
-22z"/>
<path d="M305 813 c-21 -98 -40 -184 -43 -192 -4 -11 11 -13 91 -9 128 7 166
32 182 120 6 32 3 41 -17 59 l-24 21 33 33 c26 26 33 41 33 72 0 62 -20 73
-127 73 l-90 0 -38 -177z m179 104 c16 -25 -11 -68 -49 -79 -48 -13 -54 -6
-42 52 10 51 10 51 45 48 20 -2 40 -11 46 -21z m-43 -137 c24 -13 25 -60 2
-89 -10 -12 -35 -24 -55 -28 -43 -6 -44 -4 -27 77 9 44 14 50 35 50 14 0 34
-5 45 -10z"/>
<path d="M646 967 c-8 -33 -76 -347 -76 -353 0 -2 50 -4 110 -4 88 0 110 3
110 14 0 8 3 21 6 30 5 14 -4 16 -66 16 l-73 0 7 46 c3 25 8 50 12 55 3 5 34
9 68 9 58 0 64 2 70 23 3 12 6 25 6 30 0 4 -29 7 -65 7 l-64 0 6 33 c12 62 18
67 87 67 63 0 76 7 76 41 0 5 -47 9 -104 9 -100 0 -104 -1 -110 -23z"/>
<path d="M1046 973 c-8 -27 -76 -343 -76 -354 0 -5 15 -9 33 -9 l33 0 20 83
c18 80 20 82 50 85 48 5 59 -16 47 -91 -6 -34 -9 -65 -6 -69 2 -5 19 -8 38 -8
l33 0 7 82 c6 71 5 83 -10 94 -16 12 -15 15 14 39 52 45 61 128 17 157 -6 4
-52 8 -103 8 -79 0 -92 -2 -97 -17z m148 -55 c25 -41 -32 -105 -83 -91 -20 5
-22 10 -16 42 12 70 14 72 52 69 20 -2 41 -10 47 -20z"/>
<path d="M1317 813 c-20 -98 -37 -184 -37 -190 0 -10 27 -13 104 -13 85 0 105
3 110 16 15 39 8 44 -64 44 -38 0 -70 2 -70 5 0 2 5 27 11 54 l10 50 67 3 c65
3 67 4 70 31 3 27 3 27 -59 27 l-62 0 7 42 c4 22 9 45 12 50 3 4 36 8 73 8 65
0 69 1 73 25 l5 25 -106 0 -107 0 -37 -177z"/>
<path d="M1620 986 c0 -3 -18 -86 -40 -185 -22 -99 -40 -183 -40 -186 0 -3 47
-5 104 -5 85 0 105 3 110 16 15 39 8 44 -59 44 -55 0 -65 3 -65 18 0 9 14 78
30 152 17 74 30 138 30 142 0 5 -16 8 -35 8 -19 0 -35 -2 -35 -4z"/>
<path d="M1875 978 c-8 -25 -75 -341 -75 -355 0 -11 22 -13 108 -11 l107 3 3
28 3 27 -71 0 -72 0 6 26 c4 15 10 39 13 55 5 29 6 29 74 29 53 0 69 3 69 14
0 8 3 21 6 30 5 14 -4 16 -61 16 l-67 0 7 43 c4 23 9 45 12 50 2 4 35 7 74 7
38 0 69 4 69 9 0 5 3 16 6 25 5 14 -7 16 -100 16 -76 0 -108 -4 -111 -12z"/>
<path d="M2120 813 c0 -98 4 -184 9 -191 5 -9 23 -12 50 -10 l42 3 70 155 c39
85 77 170 84 188 l14 32 -37 0 -37 0 -54 -130 c-29 -72 -58 -133 -63 -136 -6
-4 -9 44 -7 130 l4 136 -37 0 -38 0 0 -177z"/>
<path d="M2436 893 c-27 -54 -68 -140 -92 -190 l-43 -93 34 0 c32 0 37 4 57
45 22 45 22 45 75 45 l53 0 0 -45 0 -45 41 0 41 0 -5 43 c-4 23 -9 108 -13
190 l-6 147 -47 0 -46 0 -49 -97z m84 -58 l0 -85 -40 0 c-22 0 -40 4 -40 9 0
13 69 161 75 161 3 0 5 -38 5 -85z"/>
<path d="M2674 802 l-40 -187 29 -3 c16 -2 31 -2 33 0 2 2 16 61 30 131 15 70
31 127 35 127 4 0 12 -39 19 -87 23 -175 20 -168 66 -171 l41 -3 37 173 c20
95 39 181 42 191 4 14 -1 17 -29 17 l-34 0 -23 -112 c-12 -62 -26 -120 -31
-128 -9 -18 -13 -1 -29 115 -18 129 -16 125 -64 125 l-41 0 -41 -188z"/>
<path d="M3010 981 c0 -5 -3 -16 -6 -25 -5 -13 2 -16 35 -16 29 0 41 -4 41
-15 0 -8 -13 -78 -30 -155 -16 -77 -30 -145 -30 -150 0 -6 15 -10 33 -10 l34
0 27 130 c44 208 40 198 89 202 35 2 43 7 45 26 3 22 2 22 -117 22 -67 0 -121
-4 -121 -9z"/>
</g>
</svg>
